PathFileType	4	(X/Y/Z)	s10c0403.trc
DataRate	CameraRate	NumFrames	NumMarkers	Units	OrigDataRate	OrigDataStartFrame	OrigNumFrames
200	200	5	49	mm	200	1250	2000
Frame#	Time	racr			lacr			c7			jug			rlel			rdr			llel			ldr			s2			lic			ric			lasi			rasi			rpsi			lpsi			rgt			lgt			rth1			rth2			rth3			rth4			rlfc			rmfc			rsh1			rsh2			rsh3			rsh4			rlmal			rmmal			rcal			rtoe			rmt5			lth1			lth2			lth4			lth3			llfc			lmfc			llmal			lcal			lmt5			lsh1			lsh2			lsh3			lsh4			ltoe			SBIKE			LBIKE			RBIKE			
		X1	Y1	Z1	X2	Y2	Z2	X3	Y3	Z3	X4	Y4	Z4	X5	Y5	Z5	X6	Y6	Z6	X7	Y7	Z7	X8	Y8	Z8	X9	Y9	Z9	X10	Y10	Z10	X11	Y11	Z11	X12	Y12	Z12	X13	Y13	Z13	X14	Y14	Z14	X15	Y15	Z15	X16	Y16	Z16	X17	Y17	Z17	X18	Y18	Z18	X19	Y19	Z19	X20	Y20	Z20	X21	Y21	Z21	X22	Y22	Z22	X23	Y23	Z23	X24	Y24	Z24	X25	Y25	Z25	X26	Y26	Z26	X27	Y27	Z27	X28	Y28	Z28	X29	Y29	Z29	X30	Y30	Z30	X31	Y31	Z31	X32	Y32	Z32	X33	Y33	Z33	X34	Y34	Z34	X35	Y35	Z35	X36	Y36	Z36	X37	Y37	Z37	X38	Y38	Z38	X39	Y39	Z39	X40	Y40	Z40	X41	Y41	Z41	X42	Y42	Z42	X43	Y43	Z43	X44	Y44	Z44	X45	Y45	Z45	X46	Y46	Z46	X47	Y47	Z47	X48	Y48	Z48	X49	Y49	Z49	
1250	6.2500	598.956133	1363.483068	-92.289852	664.388663	1351.576303	-392.367549	615.819937	1374.575781	-240.839220	634.798623	1228.696782	-234.731759	531.939573	1103.338746	13.146513	620.832225	909.340923	-37.109102	564.698882	1101.541282	-524.341349	627.567203	908.333944	-445.424006	121.579801	1131.014624	-174.513588	242.068157	1131.470267	-359.844150	331.781008	1118.411150	-102.234907	255.401470	1052.149036	-343.273582	325.720062	1040.203777	-104.682049	185.811892	1180.859444	-134.727450	158.324087	1194.054865	-242.872276	230.692317	1024.866668	-12.324936	129.290686	1022.069024	-384.492583	261.353190	880.655938	-1.031690	291.057579	800.573098	-24.755567	279.251805	715.986238	-28.460221	323.679348	808.188712	-41.223567	286.644922	609.634802	-44.911356	259.325320	605.856737	-158.710542	192.013725	538.042149	-13.016331	160.456920	456.100734	-26.927726	93.871040	401.529122	-32.685056	187.444420	440.478474	-50.351528	37.323041	321.502337	-46.481530	59.340092	321.183360	-127.737880	-8.424569	347.099285	-95.742798	132.464053	149.421075	-104.801490	62.268072	193.017514	-39.484411	237.990431	947.896089	-407.862464	325.054434	947.412263	-407.803265	335.174087	981.608464	-399.377485	400.695505	902.049121	-413.875854	508.011064	876.543252	-407.681892	526.287730	860.352116	-279.278951	263.563517	579.924201	-390.269432	206.120141	582.684631	-346.061324	304.155992	434.556364	-403.636376	428.301766	789.602307	-428.320911	398.726869	707.279801	-418.558837	328.099744	652.808041	-410.328926	424.829405	690.996105	-396.069170	380.254308	411.311559	-350.583617	-217.623337	831.362549	-214.122674	-103.894200	80.711651	-418.438947	-103.897908	80.725195	-18.299576	
1251	6.2550	599.420757	1363.311882	-91.670492	665.921596	1349.877286	-391.945561	616.700179	1374.659137	-240.528203	634.405150	1228.250215	-233.831962	532.711668	1103.407914	13.250444	620.825156	909.274134	-37.589443	563.792030	1101.293581	-524.506343	627.512485	908.408722	-445.282378	120.381603	1133.743753	-177.165617	241.815521	1133.415880	-361.449146	329.931962	1121.190732	-102.379874	254.777414	1053.352569	-343.853972	325.000941	1043.321816	-104.445269	184.780804	1183.238991	-137.568676	158.031673	1196.452456	-245.403904	229.437934	1028.071703	-13.605985	129.306037	1023.477543	-385.716738	262.654521	883.362403	-1.908459	294.833160	804.105043	-25.322178	285.425271	719.108778	-28.664277	327.142826	812.544528	-41.784174	294.600312	612.669058	-44.747920	269.101362	607.608882	-158.628612	198.362339	542.916931	-12.690931	165.252619	461.662156	-26.416052	97.596682	408.350087	-32.275251	192.096667	445.410652	-49.642764	39.714607	329.185037	-45.801388	62.311260	328.555564	-127.377626	-4.013239	357.847898	-95.519529	124.193268	151.524095	-104.660223	56.867612	199.284166	-39.492884	236.004935	947.317600	-408.416086	323.080905	945.430969	-408.684636	333.779334	979.491522	-400.584768	397.978052	898.537749	-414.258261	506.146505	871.078143	-407.035284	522.226278	856.299381	-280.190002	264.691448	571.111772	-391.038522	206.945565	571.623991	-346.586518	310.372006	427.433829	-404.222650	427.115904	783.426698	-429.096520	398.013940	700.954437	-418.989676	327.952125	645.827079	-411.142167	424.249034	684.868025	-396.652505	387.474001	407.162910	-350.850217	-217.601379	831.376898	-214.140589	-103.906720	80.737961	-418.432788	-103.906600	80.749615	-18.307651	
1252	6.2600	600.034905	1363.064455	-90.914966	667.320579	1348.279428	-391.219068	617.563668	1374.833367	-240.001895	633.991565	1227.840410	-232.926185	533.481116	1103.453128	13.345198	620.773835	909.221643	-38.124408	562.917824	1101.099924	-524.484031	626.960413	909.483270	-447.234706	118.845082	1136.510641	-179.805024	241.859411	1135.352965	-363.563781	328.066341	1123.719826	-102.485193	254.387252	1054.346045	-344.544512	324.295411	1046.134717	-104.354958	184.227824	1184.940637	-140.820231	157.661779	1198.752273	-248.171779	228.131306	1031.513999	-15.059776	129.220971	1024.748493	-387.117489	264.004660	885.949945	-2.793679	298.467676	807.466996	-26.049786	291.822149	722.397697	-28.829395	330.612037	817.056170	-42.244718	302.794395	615.750001	-44.744841	278.690699	609.574856	-158.677844	205.111857	547.868753	-12.539500	170.485276	467.338229	-25.876021	101.788164	415.328610	-31.688853	197.043113	450.454139	-48.920212	42.086714	336.608511	-45.094649	65.955304	335.416575	-126.708394	0.859749	368.005425	-95.204420	116.232126	154.399201	-104.259703	51.693620	205.981295	-39.522480	234.356274	947.006493	-409.745948	320.986848	943.129781	-409.588516	332.318020	976.992029	-401.687607	395.027516	894.833950	-414.892741	503.733996	864.914090	-407.329322	518.667617	851.360058	-280.603043	265.402481	561.811880	-392.116152	207.436973	560.064551	-347.039132	316.231094	419.452900	-404.174098	425.212143	776.382232	-429.720858	396.829012	693.803233	-419.372351	327.428566	637.822474	-411.745090	423.380793	677.859726	-396.928936	393.951524	402.394734	-351.054015	-217.575817	831.397260	-214.168329	-103.911404	80.717165	-418.474233	-103.899139	80.759909	-18.326758	
1253	6.2650	600.861059	1362.782576	-90.089460	668.493595	1346.884126	-390.162258	618.311285	1375.086258	-239.499701	633.615809	1227.476905	-231.969011	534.288879	1103.416106	13.452740	620.700307	909.115763	-38.693264	562.100350	1101.038402	-524.364583	626.950892	909.617308	-446.995348	117.745843	1138.774342	-182.527664	241.775532	1136.914605	-365.664262	326.230258	1126.168176	-102.410626	254.231895	1055.313693	-345.060501	323.368583	1048.557120	-104.064872	182.969197	1186.831931	-143.374853	157.347643	1200.755879	-250.882523	226.732001	1035.044926	-15.956377	128.939961	1025.892096	-388.289704	265.345735	888.443500	-3.656864	302.304463	811.096382	-26.567380	298.151267	725.819006	-29.151668	333.985543	821.491293	-42.501082	311.055137	618.874875	-44.943867	288.384448	611.709305	-158.780468	212.278740	552.896952	-12.321614	176.064680	473.115424	-25.379729	106.359969	422.342647	-31.055588	202.288675	455.507783	-48.536142	44.363159	343.783243	-44.464819	69.180860	342.333598	-126.064740	5.707296	378.428220	-93.797295	107.506172	157.281833	-104.803309	46.895600	212.881584	-39.337514	232.313654	946.219145	-410.476704	318.806880	940.542306	-410.364713	330.797222	974.354091	-402.696972	391.915510	890.805551	-415.294290	500.942780	857.940530	-407.661925	514.983266	845.461816	-281.153287	266.005916	550.979729	-392.273623	207.754391	547.813343	-347.886578	321.529025	411.426579	-404.406611	422.634660	768.497712	-430.175624	395.209345	685.717110	-419.551529	326.471727	628.780898	-412.184284	421.964076	670.082508	-397.165532	399.763764	397.265674	-351.133622	-217.565836	831.396379	-214.216498	-103.905018	80.725315	-418.448997	-103.911824	80.750360	-18.333156	
1254	6.2700	601.737941	1362.492274	-89.224443	669.351803	1345.821971	-388.783359	618.954441	1375.367136	-238.749404	633.212947	1227.175775	-230.973418	535.111869	1103.274935	13.711302	620.630906	909.012284	-39.235722	561.414442	1101.051330	-524.091135	626.945759	909.753021	-446.767210	116.930495	1140.797361	-185.276896	241.736371	1138.212003	-367.751656	324.384070	1128.334301	-102.375335	254.564319	1056.414279	-345.971154	321.270836	1050.409930	-103.779009	181.331160	1188.954061	-145.771190	156.917663	1202.576305	-253.696925	224.830696	1037.901291	-17.328775	128.556465	1026.881569	-389.408048	266.674927	890.976773	-4.465630	305.612668	814.622391	-27.178551	304.330234	729.323669	-29.500128	337.451114	826.048311	-42.636003	319.304551	622.124973	-45.308152	297.885290	614.007415	-158.795475	219.444963	558.083742	-12.076572	181.981667	478.761958	-24.948029	111.310004	429.400628	-30.314123	207.808753	460.763612	-48.060878	46.484312	351.126120	-43.995717	72.064337	349.316879	-125.459352	10.013190	388.004484	-93.460508	99.888448	161.597977	-104.705157	42.464538	220.484969	-39.305561	230.188416	945.305316	-411.173236	316.627432	937.693000	-411.177038	329.384024	971.660824	-404.428980	388.695004	886.481714	-415.922788	497.835593	850.217526	-407.893634	511.177133	838.684443	-281.836065	266.183456	539.971529	-392.914349	207.428740	534.919005	-347.922661	326.161275	402.824159	-404.605572	419.390319	759.932113	-430.408652	393.145264	676.373040	-419.021564	325.354326	618.914742	-412.700988	420.163584	661.719003	-397.317028	404.906130	391.628716	-351.270745	-217.518240	831.404189	-214.217161	-103.914717	80.728326	-418.434898	-103.895554	80.750679	-18.341073	
